# Blender v2.78 (sub 0) OBJ File: '2.blend'
# www.blender.org
mtllib PUSHILIN_satellite.mtl
o satellite
v -0.394495 0.150203 0.497444
v 0.798398 -0.337389 0.691471
v 0.071968 -0.077021 0.491205
v 0.806419 -0.317684 0.682543
v -0.543203 0.126848 0.351884
v 0.826019 -0.333701 0.665746
v 0.056239 -0.145822 0.520402
v 0.817998 -0.353406 0.674673
v 0.052641 -0.055743 0.550822
v 0.033494 -0.102780 0.572134
v 0.054637 -0.079129 0.500999
v 0.035490 -0.126166 0.522310
v 0.057868 -0.044988 0.559092
v -0.547104 0.172560 0.449271
v 0.042139 -0.113790 0.588289
v -0.584530 0.080619 0.490927
v -0.606725 -0.072235 -0.359235
v 0.005940 -0.352338 -0.335960
v -0.574855 -0.003106 -0.283113
v 0.017512 -0.300603 -0.280977
v -0.638596 -0.141364 -0.283113
v -0.027278 -0.398800 -0.285252
v -0.606725 -0.072235 -0.206991
v -0.015705 -0.347066 -0.230268
v -0.017358 -0.343146 -0.322058
v -0.001053 -0.307779 -0.283114
v -0.033662 -0.378512 -0.283114
v -0.017357 -0.343146 -0.244170
v 0.736941 -0.686209 -0.299430
v 0.743772 -0.671394 -0.283116
v 0.718834 -0.677293 -0.266801
v 0.712004 -0.692109 -0.283116
v -0.504348 0.484275 -0.362678
v 0.185508 0.341065 -0.338305
v -0.520474 0.406360 -0.283112
v 0.162500 0.288603 -0.282701
v -0.488220 0.562190 -0.283112
v 0.185469 0.399140 -0.283527
v -0.504347 0.484275 -0.203546
v 0.162460 0.346678 -0.227923
v 0.157660 0.347847 -0.323820
v 0.149409 0.307986 -0.283114
v 0.165910 0.387709 -0.283114
v 0.157660 0.347847 -0.242408
v 1.034520 0.161730 -0.300168
v 1.031064 0.145031 -0.283116
v 1.023297 0.164464 -0.266063
v 1.026753 0.181162 -0.283116
v -0.744278 0.428680 0.284924
v -0.859237 0.206915 -0.138463
v -0.771473 -0.064946 0.259413
v -0.580629 0.034907 0.393540
v -0.267919 0.557820 0.246670
v -0.561246 0.587998 -0.146338
v -0.610664 -0.204120 -0.187612
v -0.311917 -0.240886 0.205396
v -0.000706 0.144001 0.197520
v -0.096346 0.428552 -0.200355
v -0.484088 0.203497 -0.438386
v -0.115986 -0.094056 -0.225867
vt 0.8872 0.0245
vt 0.8872 0.3148
vt 0.8805 0.3163
vt 0.8713 0.0282
vt 0.5607 0.9081
vt 0.5520 0.7622
vt 0.5834 0.7448
vt 0.5834 0.8945
vt 0.9416 0.8666
vt 0.9478 0.5865
vt 0.9523 0.5817
vt 0.9523 0.8720
vt 0.9011 0.3004
vt 0.9103 0.0245
vt 0.9169 0.0263
vt 0.9169 0.3046
vt 0.9673 0.0245
vt 0.9673 0.3110
vt 0.9627 0.3065
vt 0.9568 0.0305
vt 0.1685 0.4455
vt 0.1685 0.4562
vt 0.1617 0.4549
vt 0.1617 0.4442
vt 0.7325 0.2919
vt 0.7325 0.3121
vt 0.7134 0.3121
vt 0.7134 0.2919
vt 0.2676 0.7829
vt 0.2676 0.8104
vt 0.2431 0.8125
vt 0.2431 0.7849
vt 0.2292 0.8224
vt 0.1919 0.8224
vt 0.1919 0.7829
vt 0.2292 0.7829
vt 0.1753 0.6143
vt 0.1753 0.8381
vt 0.1428 0.8287
vt 0.1529 0.6111
vt 0.8714 0.3389
vt 0.8714 0.5191
vt 0.8377 0.5067
vt 0.8483 0.3321
vt 0.8049 0.2418
vt 0.7949 0.0349
vt 0.8272 0.0245
vt 0.8272 0.2377
vt 0.6019 0.9755
vt 0.5974 0.7602
vt 0.6161 0.7448
vt 0.6161 0.9685
vt 0.7417 0.7785
vt 0.7417 0.8180
vt 0.7044 0.8180
vt 0.7044 0.7785
vt 0.0241 0.7858
vt 0.0483 0.7859
vt 0.0483 0.8139
vt 0.0241 0.8138
vt 0.7134 0.2570
vt 0.7326 0.2570
vt 0.7326 0.2772
vt 0.7134 0.2772
vt 0.1697 0.4184
vt 0.1697 0.4295
vt 0.1617 0.4292
vt 0.1617 0.4182
vt 0.9759 0.5817
vt 0.9759 0.8558
vt 0.9721 0.8525
vt 0.9663 0.5895
vt 0.9276 0.5817
vt 0.9276 0.8421
vt 0.9207 0.8444
vt 0.9111 0.5870
vt 0.9194 0.5505
vt 0.9294 0.3361
vt 0.9367 0.3333
vt 0.9367 0.5567
vt 0.8805 0.8530
vt 0.8902 0.5817
vt 0.8972 0.5837
vt 0.8972 0.8579
vt 0.3356 0.8399
vt 0.3190 0.8475
vt 0.3121 0.6275
vt 0.3356 0.6111
vt 0.8354 0.5817
vt 0.8629 0.5842
vt 0.8666 0.7567
vt 0.8274 0.7567
vt 0.5122 0.7448
vt 0.5381 0.7510
vt 0.5381 0.8995
vt 0.5013 0.8873
vt 0.7565 0.3334
vt 0.7789 0.3382
vt 0.7789 0.5670
vt 0.7475 0.5545
vt 0.6904 0.8201
vt 0.6517 0.8197
vt 0.6517 0.7785
vt 0.6904 0.7789
vt 0.7727 0.2909
vt 0.7727 0.3188
vt 0.7475 0.3149
vt 0.7475 0.2870
vt 0.7134 0.2421
vt 0.7134 0.2210
vt 0.7332 0.2212
vt 0.7332 0.2423
vt 0.1699 0.4807
vt 0.1617 0.4809
vt 0.1617 0.4710
vt 0.1699 0.4709
vt 0.8573 0.3143
vt 0.8412 0.3080
vt 0.8504 0.0255
vt 0.8573 0.0245
vt 0.8462 0.9632
vt 0.8274 0.9569
vt 0.8383 0.7714
vt 0.8462 0.7740
vt 0.9054 0.5567
vt 0.8853 0.5567
vt 0.8930 0.3321
vt 0.9015 0.3349
vt 0.9309 0.0329
vt 0.9429 0.0245
vt 0.9429 0.3143
vt 0.9378 0.3178
vt 0.4873 0.4135
vt 0.4873 0.5928
vt 0.3523 0.5127
vt 0.4973 0.0245
vt 0.4973 0.2038
vt 0.3554 0.1052
vt 0.1919 0.1154
vt 0.3414 0.0245
vt 0.3414 0.2063
vt 0.7335 0.5670
vt 0.6525 0.4987
vt 0.7335 0.3879
vt 0.3523 0.7281
vt 0.4659 0.6075
vt 0.4659 0.7731
vt 0.2557 0.6111
vt 0.2982 0.7682
vt 0.1919 0.7682
vt 0.1477 0.5964
vt 0.0241 0.4898
vt 0.1477 0.4182
vt 0.6517 0.6733
vt 0.7327 0.5817
vt 0.7327 0.7638
vt 0.6616 0.1256
vt 0.7360 0.0245
vt 0.7360 0.2056
vt 0.8134 0.5817
vt 0.8134 0.7633
vt 0.7467 0.6782
vt 0.6740 0.3509
vt 0.6628 0.2210
vt 0.6995 0.2277
vt 0.6995 0.3589
vt 0.3383 0.4031
vt 0.1919 0.3137
vt 0.3383 0.2210
vt 0.6489 0.3678
vt 0.5102 0.3368
vt 0.6489 0.2210
vt 0.6386 0.5670
vt 0.5013 0.5376
vt 0.6386 0.4135
vt 0.1289 0.7711
vt 0.0241 0.7711
vt 0.0711 0.6111
vt 0.4963 0.3988
vt 0.3523 0.3003
vt 0.4963 0.2210
vt 0.3220 0.5964
vt 0.1919 0.4798
vt 0.3220 0.4178
vt 0.0241 0.1166
vt 0.1780 0.0245
vt 0.1780 0.2168
vt 0.5013 0.6930
vt 0.6377 0.5817
vt 0.6377 0.7301
vt 0.6477 0.1729
vt 0.5112 0.0616
vt 0.6477 0.0245
vt 0.1731 0.2315
vt 0.1731 0.4035
vt 0.0241 0.3135
vt 0.8237 0.3419
vt 0.8237 0.5670
vt 0.7929 0.5583
vt 0.8018 0.3321
vt 0.7588 0.2662
vt 0.7499 0.0317
vt 0.7810 0.0245
vt 0.7810 0.2575
vn 0.0509 -0.4293 -0.9017
vn 0.3695 0.8557 -0.3623
vn 0.3623 0.8490 -0.3847
vn -0.0138 0.4173 0.9087
vn -0.3259 -0.8562 0.4008
vn 0.6763 0.0574 0.7344
vn -0.9369 0.3005 -0.1786
vn 0.9610 -0.1125 0.2527
vn 0.3218 0.6406 -0.6972
vn 0.3115 0.6173 0.7224
vn -0.2770 -0.6590 0.6993
vn -0.2684 -0.6394 -0.7205
vn -0.9081 0.4187 0.0000
vn 0.8876 -0.4137 0.2024
vn 0.4822 -0.7395 0.4697
vn -0.2778 -0.6587 -0.6992
vn -0.2742 -0.6520 0.7069
vn 0.3104 0.6359 0.7066
vn 0.3102 0.6355 -0.7070
vn -0.1197 -0.6970 -0.7070
vn -0.1180 -0.6908 0.7134
vn 0.1668 0.6851 0.7091
vn 0.1659 0.6830 -0.7113
vn -0.9792 0.2027 0.0000
vn 0.9576 -0.1974 0.2100
vn 0.9465 0.1129 0.3024
vn 0.1650 0.6875 -0.7072
vn 0.1650 0.6878 0.7069
vn -0.1274 -0.6916 0.7110
vn -0.1285 -0.6954 -0.7070
vn -0.9695 0.0409 0.2418
vn -0.7843 0.6111 -0.1071
vn -0.5278 -0.0148 0.8493
vn -0.2349 0.9400 0.2475
vn -0.5628 0.4254 -0.7088
vn -0.8537 -0.4981 -0.1520
vn 0.5834 0.2864 0.7600
vn 0.3043 0.9399 -0.1550
vn -0.6020 -0.2744 -0.7499
vn -0.3352 -0.9271 0.1681
vn -0.3243 -0.8691 0.3735
vn 0.8369 0.5201 0.1708
vn 0.1207 0.6157 -0.7787
vn 0.0539 -0.5353 -0.8429
vn 0.1936 -0.9522 -0.2362
vn 0.7714 -0.6209 0.1391
vn 0.9680 -0.0242 -0.2500
vn 0.5135 0.0226 -0.8578
vn -0.0791 0.5401 0.8379
vn -0.1426 -0.6114 0.7784
vn 0.5442 -0.4252 0.7233
vn -0.0171 0.4080 0.9128
vn 0.0634 -0.4200 -0.9053
usemtl None
s off
f 11/1/1 6/2/1 8/3/1 12/4/1
f 3/5/2 5/6/2 14/7/2 13/8/2
f 9/9/3 4/10/3 6/11/3 11/12/3
f 10/13/4 2/14/4 4/15/4 9/16/4
f 12/17/5 8/18/5 2/19/5 10/20/5
f 2/21/6 8/22/6 6/23/6 4/24/6
f 10/25/7 9/26/7 11/27/7 12/28/7
f 15/29/8 7/30/8 3/31/8 13/32/8
f 52/33/7 16/34/7 14/35/7 5/36/7
f 18/37/9 17/38/9 19/39/9 20/40/9
f 20/41/10 19/42/10 23/43/10 24/44/10
f 24/45/11 23/46/11 21/47/11 22/48/11
f 22/49/12 21/50/12 17/51/12 18/52/12
f 17/53/13 21/54/13 23/55/13 19/56/13
f 22/57/14 18/58/14 20/59/14 24/60/14
f 27/61/13 28/62/13 26/63/13 25/64/13
f 32/65/15 29/66/15 30/67/15 31/68/15
f 25/69/16 29/70/16 32/71/16 27/72/16
f 27/73/17 32/74/17 31/75/17 28/76/17
f 28/77/18 31/78/18 30/79/18 26/80/18
f 26/81/19 30/82/19 29/83/19 25/84/19
f 34/85/20 36/86/20 35/87/20 33/88/20
f 36/89/21 40/90/21 39/91/21 35/92/21
f 40/93/22 38/94/22 37/95/22 39/96/22
f 38/97/23 34/98/23 33/99/23 37/100/23
f 33/101/24 35/102/24 39/103/24 37/104/24
f 38/105/25 40/106/25 36/107/25 34/108/25
f 43/109/24 41/110/24 42/111/24 44/112/24
f 48/113/26 47/114/26 46/115/26 45/116/26
f 41/117/27 43/118/27 48/119/27 45/120/27
f 43/121/28 44/122/28 47/123/28 48/124/28
f 44/125/29 42/126/29 46/127/29 47/128/29
f 42/129/30 41/130/30 45/131/30 46/132/30
f 49/133/31 50/134/31 51/135/31
f 50/136/32 49/137/32 54/138/32
f 49/139/33 51/140/33 1/141/33
f 49/142/34 53/143/34 54/144/34
f 50/145/35 54/146/35 59/147/35
f 51/148/36 50/149/36 55/150/36
f 53/151/37 1/152/37 57/153/37
f 54/154/38 53/155/38 58/156/38
f 50/157/39 59/158/39 55/159/39
f 51/160/40 55/161/40 56/162/40
f 15/163/41 16/164/41 52/165/41 7/166/41
f 53/167/42 57/168/42 58/169/42
f 54/170/43 58/171/43 59/172/43
f 55/173/44 59/174/44 60/175/44
f 56/176/45 55/177/45 60/178/45
f 57/179/46 56/180/46 60/181/46
f 58/182/47 57/183/47 60/184/47
f 59/185/48 58/186/48 60/187/48
f 49/188/49 1/189/49 53/190/49
f 1/191/50 51/192/50 56/193/50
f 1/194/51 56/195/51 57/196/51
f 13/197/52 14/198/52 16/199/52 15/200/52
f 7/201/53 52/202/53 5/203/53 3/204/53
